<!-- icon666.com - MILLIONS vector ICONS FREE -->
<svg version="1.1" id="Capa_1" xmlns="http://www.w3.org/2000/svg"
  xmlns:xlink="http://www.w3.org/1999/xlink" x="0px" y="0px" viewBox="0 0 502.664 502.664"
  style="enable-background:new 0 0 502.664 502.664;" xml:space="preserve">
  <style>
    rect,
    polygon,
    path {
      fill: #fe8d15;
    }
  </style>
  <g>
    <g>
      <rect x="13.546" y="152.786" width="65.899" height="192.541"></rect>
      <polygon points="113.16,346.491 308.592,502.664 308.592,0 113.16,156.194 "></polygon>
      <path d="M341.595,75.951v37.512c63.31,13.978,110.637,70.407,110.637,137.902 c0,67.517-47.326,123.859-110.637,137.924v37.512c83.781-14.603,147.523-87.47,147.523-175.435S425.376,90.511,341.595,75.951z"></path>
      <path d="M418.667,251.343c0-49.483-32.442-91.029-77.072-105.416v24.224 c31.709,13.288,54.035,44.522,54.035,81.192c0,36.584-22.326,67.862-54.035,81.171v24.289 C386.225,342.393,418.667,300.826,418.667,251.343z"></path>
    </g>
  </g>
</svg>
